<?xml version="1.0" encoding="UTF-8"?>
<!DOCTYPE svg PUBLIC "-//W3C//DTD SVG 1.1//EN" "http://www.w3.org/Graphics/SVG/1.1/DTD/svg11.dtd">
<svg xmlns="http://www.w3.org/2000/svg" xmlns:xlink="http://www.w3.org/1999/xlink" version="1.1" width="920px" height="3031px" viewBox="-0.5 -0.5 920 3031"><defs/><g><path d="M 440 80 L 440 149.9" fill="none" stroke="#ffffff" stroke-width="3" stroke-miterlimit="10" pointer-events="stroke"/><path d="M 440 156.65 L 435.5 147.65 L 440 149.9 L 444.5 147.65 Z" fill="#ffffff" stroke="#ffffff" stroke-width="3" stroke-miterlimit="10" pointer-events="all"/><rect x="320" y="0" width="240" height="80" rx="12" ry="12" fill="#23445d" stroke="#b46504" pointer-events="all"/><g fill="#FFFFFF" font-family="Tahoma" font-weight="bold" text-anchor="middle" font-size="21px"><text x="439.5" y="36.5"> Road to DevOps </text><text x="439.5" y="61.5">Expert</text></g><path d="M 910 380 L 862.49 380 L 862.5 619.9" fill="none" stroke="#ffffff" stroke-width="3" stroke-miterlimit="10" pointer-events="stroke"/><path d="M 862.5 626.65 L 858 617.65 L 862.5 619.9 L 867 617.65 Z" fill="#ffffff" stroke="#ffffff" stroke-width="3" stroke-miterlimit="10" pointer-events="all"/><rect x="720" y="340" width="190" height="80" rx="12" ry="12" fill="#23445d" stroke="#b46504" pointer-events="all"/><g fill="#FFFFFF" font-family="Tahoma" font-weight="bold" text-anchor="middle" font-size="17px"><text x="814.5" y="387">Operating Systems</text></g><path d="M 560 200 L 595 200 L 619.9 199.78" fill="none" stroke="#ffffff" stroke-width="3" stroke-miterlimit="10" stroke-dasharray="9 9" pointer-events="stroke"/><path d="M 626.65 199.71 L 617.69 204.3 L 619.9 199.78 L 617.61 195.3 Z" fill="#ffffff" stroke="#ffffff" stroke-width="3" stroke-miterlimit="10" pointer-events="all"/><path d="M 440 240 L 440.03 380 L 709.9 380" fill="none" stroke="#ffffff" stroke-width="3" stroke-miterlimit="10" pointer-events="stroke"/><path d="M 716.65 380 L 707.65 384.5 L 709.9 380 L 707.65 375.5 Z" fill="#ffffff" stroke="#ffffff" stroke-width="3" stroke-miterlimit="10" pointer-events="all"/><path d="M 380 240 L 380 290.78" fill="none" stroke="#fafafa" stroke-width="3" stroke-miterlimit="10" pointer-events="stroke"/><path d="M 380 297.53 L 375.5 288.53 L 380 290.78 L 384.5 288.53 Z" fill="#fafafa" stroke="#fafafa" stroke-width="3" stroke-miterlimit="10" pointer-events="all"/><rect x="320" y="160" width="240" height="80" rx="12" ry="12" fill="#23445d" stroke="#b46504" pointer-events="all"/><g fill="#FFFFFF" font-family="Tahoma" font-weight="bold" text-anchor="middle" font-size="17px"><text x="439.5" y="197">Programming Languages </text><text x="439.5" y="217"> External Packages</text></g><rect x="640" y="100" width="130" height="60" rx="9" ry="9" fill="#23445d" stroke="#b46504" pointer-events="all"/><g fill="#ffffff" font-family="Tahoma" font-weight="bold" text-anchor="middle" font-size="17px"><text x="704.5" y="137">Python</text></g><rect x="780" y="100" width="130" height="60" rx="9" ry="9" fill="#23445d" stroke="#b46504" pointer-events="all"/><g fill="#ffffff" font-family="Tahoma" font-weight="bold" text-anchor="middle" font-size="17px"><text x="844.5" y="137">Go</text></g><rect x="640" y="170" width="130" height="60" rx="9" ry="9" fill="#23445d" stroke="#b46504" pointer-events="all"/><g fill="#ffffff" font-family="Tahoma" font-weight="bold" text-anchor="middle" font-size="17px"><text x="704.5" y="207">Tailwind</text></g><rect x="780" y="170" width="130" height="60" rx="9" ry="9" fill="#23445d" stroke="#b46504" pointer-events="all"/><g fill="#ffffff" font-family="Tahoma" font-weight="bold" text-anchor="middle" font-size="17px"><text x="844.5" y="207">React</text></g><rect x="640" y="240" width="130" height="60" rx="9" ry="9" fill="#23445d" stroke="#b46504" pointer-events="all"/><g fill="#ffffff" font-family="Tahoma" font-weight="bold" text-anchor="middle" font-size="17px"><text x="704.5" y="277">Javascript</text></g><rect x="780" y="240" width="130" height="60" rx="9" ry="9" fill="#23445d" stroke="#b46504" pointer-events="all"/><g fill="#ffffff" font-family="Tahoma" font-weight="bold" text-anchor="middle" font-size="17px"><text x="844.5" y="277">Node/NPM</text></g><rect x="450" y="440" width="130" height="60" rx="9" ry="9" fill="#23445d" stroke="#b46504" pointer-events="all"/><g fill="#FFFFFF" font-family="Tahoma" font-weight="bold" text-anchor="middle" font-size="17px"><text x="514.5" y="477">Windows</text></g><rect x="590" y="440" width="130" height="60" rx="9" ry="9" fill="#23445d" stroke="#b46504" pointer-events="all"/><g fill="#FFFFFF" font-family="Tahoma" font-weight="bold" text-anchor="middle" font-size="17px"><text x="654.5" y="477">Ubuntu</text></g><rect x="590" y="510" width="130" height="60" rx="9" ry="9" fill="#23445d" stroke="#b46504" pointer-events="all"/><g fill="#FFFFFF" font-family="Tahoma" font-weight="bold" text-anchor="middle" font-size="17px"><text x="654.5" y="547">RHEL</text></g><path d="M 720 670 L 690.49 670 L 670.1 670" fill="none" stroke="#ffffff" stroke-width="3" stroke-miterlimit="10" stroke-dasharray="9 9" pointer-events="stroke"/><path d="M 663.35 670 L 672.35 665.5 L 670.1 670 L 672.35 674.5 Z" fill="#ffffff" stroke="#ffffff" stroke-width="3" stroke-miterlimit="10" pointer-events="all"/><path d="M 862.5 710 L 862.5 829.9" fill="none" stroke="#ffffff" stroke-width="3" stroke-miterlimit="10" pointer-events="stroke"/><path d="M 862.5 836.65 L 858 827.65 L 862.5 829.9 L 867 827.65 Z" fill="#ffffff" stroke="#ffffff" stroke-width="3" stroke-miterlimit="10" pointer-events="all"/><rect x="720" y="630" width="190" height="80" rx="12" ry="12" fill="#23445d" stroke="#b46504" pointer-events="all"/><g fill="#FFFFFF" font-family="Tahoma" font-weight="bold" text-anchor="middle" font-size="17px"><text x="814.5" y="677">Scripting</text></g><rect x="380" y="630" width="130" height="60" rx="9" ry="9" fill="#23445d" stroke="#b46504" pointer-events="all"/><g fill="#FFFFFF" font-family="Tahoma" font-weight="bold" text-anchor="middle" font-size="17px"><text x="444.5" y="667">Bash</text></g><rect x="520" y="630" width="130" height="60" rx="9" ry="9" fill="#23445d" stroke="#b46504" pointer-events="all"/><g fill="#FFFFFF" font-family="Tahoma" font-weight="bold" text-anchor="middle" font-size="17px"><text x="584.5" y="667">PowerShell</text></g><rect x="520" y="700" width="130" height="60" rx="9" ry="9" fill="#23445d" stroke="#b46504" pointer-events="all"/><g fill="#FFFFFF" font-family="Tahoma" font-weight="bold" text-anchor="middle" font-size="17px"><text x="584.5" y="737">Batch</text></g><path d="M 815 420 L 815 500 L 750.1 500" fill="none" stroke="#ffffff" stroke-width="3" stroke-miterlimit="10" stroke-dasharray="9 9" pointer-events="stroke"/><path d="M 743.35 500 L 752.35 495.5 L 750.1 500 L 752.35 504.5 Z" fill="#ffffff" stroke="#ffffff" stroke-width="3" stroke-miterlimit="10" pointer-events="all"/><path d="M 815 920 L 815 945.03 L 815 959.9" fill="none" stroke="#ffffff" stroke-width="3" stroke-miterlimit="10" stroke-dasharray="9 9" pointer-events="stroke"/><path d="M 815 966.65 L 810.5 957.65 L 815 959.9 L 819.5 957.65 Z" fill="#ffffff" stroke="#ffffff" stroke-width="3" stroke-miterlimit="10" pointer-events="all"/><path d="M 720 880 L 660.1 880" fill="none" stroke="#ffffff" stroke-width="3" stroke-miterlimit="10" pointer-events="stroke"/><path d="M 653.35 880 L 662.35 875.5 L 660.1 880 L 662.35 884.5 Z" fill="#ffffff" stroke="#ffffff" stroke-width="3" stroke-miterlimit="10" pointer-events="all"/><rect x="720" y="840" width="190" height="80" rx="12" ry="12" fill="#23445d" stroke="#b46504" pointer-events="all"/><g fill="#FFFFFF" font-family="Tahoma" font-weight="bold" text-anchor="middle" font-size="17px"><text x="814.5" y="877">Version Control </text><text x="814.5" y="897">Systems</text></g><rect x="750" y="980" width="130" height="60" rx="9" ry="9" fill="#23445d" stroke="#b46504" pointer-events="all"/><g fill="#FFFFFF" font-family="Tahoma" font-weight="bold" text-anchor="middle" font-size="17px"><text x="814.5" y="1017">Git</text></g><path d="M 460 880 L 290.1 880" fill="none" stroke="#ffffff" stroke-width="3" stroke-miterlimit="10" pointer-events="stroke"/><path d="M 283.35 880 L 292.35 875.5 L 290.1 880 L 292.35 884.5 Z" fill="#ffffff" stroke="#ffffff" stroke-width="3" stroke-miterlimit="10" pointer-events="all"/><rect x="460" y="840" width="190" height="80" rx="12" ry="12" fill="#23445d" stroke="#b46504" pointer-events="all"/><g fill="#FFFFFF" font-family="Tahoma" font-weight="bold" text-anchor="middle" font-size="17px"><text x="554.5" y="887">VCS Hosting</text></g><rect x="520" y="980" width="130" height="60" rx="9" ry="9" fill="#23445d" stroke="#b46504" pointer-events="all"/><g fill="#FFFFFF" font-family="Tahoma" font-weight="bold" text-anchor="middle" font-size="17px"><text x="584.5" y="1017">GitHub</text></g><rect x="520" y="1050" width="130" height="60" rx="9" ry="9" fill="#23445d" stroke="#b46504" pointer-events="all"/><g fill="#FFFFFF" font-family="Tahoma" font-weight="bold" text-anchor="middle" font-size="17px"><text x="584.5" y="1087">GitLab</text></g><rect x="520" y="1120" width="130" height="60" rx="9" ry="9" fill="#23445d" stroke="#b46504" pointer-events="all"/><g fill="#FFFFFF" font-family="Tahoma" font-weight="bold" text-anchor="middle" font-size="17px"><text x="584.5" y="1157">Azure DevOps</text></g><path d="M 210 840 L 210.03 810.51 L 210.01 790.1" fill="none" stroke="#ffffff" stroke-width="3" stroke-miterlimit="10" stroke-dasharray="9 9" pointer-events="stroke"/><path d="M 210 783.35 L 214.51 792.35 L 210.01 790.1 L 205.51 792.36 Z" fill="#ffffff" stroke="#ffffff" stroke-width="3" stroke-miterlimit="10" pointer-events="all"/><path d="M 70 920 L 69.97 988.78" fill="none" stroke="#ffffff" stroke-width="3" stroke-miterlimit="10" pointer-events="stroke"/><path d="M 69.96 995.53 L 65.47 986.52 L 69.97 988.78 L 74.47 986.53 Z" fill="#ffffff" stroke="#ffffff" stroke-width="3" stroke-miterlimit="10" pointer-events="all"/><path d="M 70 840 L 69.6 790.1" fill="none" stroke="#f5f5f5" stroke-width="3" stroke-miterlimit="10" stroke-dasharray="9 9" pointer-events="stroke"/><path d="M 69.55 783.35 L 74.12 792.32 L 69.6 790.1 L 65.12 792.39 Z" fill="#f5f5f5" stroke="#f5f5f5" stroke-width="3" stroke-miterlimit="10" pointer-events="all"/><rect x="0" y="840" width="280" height="80" rx="12" ry="12" fill="#23445d" stroke="#b46504" pointer-events="all"/><g fill="#FFFFFF" font-family="Tahoma" font-weight="bold" text-anchor="middle" font-size="17px"><text x="139.5" y="877">What is and how to </text><text x="139.5" y="897">setup a __?</text></g><rect x="0" y="710" width="140" height="60" rx="9" ry="9" fill="#23445d" stroke="#b46504" pointer-events="all"/><g fill="#FFFFFF" font-family="Tahoma" font-weight="bold" text-anchor="middle" font-size="17px"><text x="69.5" y="747">Firewall</text></g><rect x="150" y="710" width="130" height="60" rx="9" ry="9" fill="#23445d" stroke="#b46504" pointer-events="all"/><g fill="#FFFFFF" font-family="Tahoma" font-weight="bold" text-anchor="middle" font-size="17px"><text x="214.5" y="747">Load Balancer</text></g><rect x="0" y="640" width="140" height="60" rx="9" ry="9" fill="#23445d" stroke="#b46504" pointer-events="all"/><g fill="#FFFFFF" font-family="Tahoma" font-weight="bold" text-anchor="middle" font-size="17px"><text x="69.5" y="677">Forward Proxy</text></g><rect x="0" y="570" width="140" height="60" rx="9" ry="9" fill="#23445d" stroke="#b46504" pointer-events="all"/><g fill="#FFFFFF" font-family="Tahoma" font-weight="bold" text-anchor="middle" font-size="17px"><text x="69.5" y="607">Reverse Proxy</text></g><rect x="150" y="640" width="130" height="60" rx="9" ry="9" fill="#23445d" stroke="#b46504" pointer-events="all"/><g fill="#FFFFFF" font-family="Tahoma" font-weight="bold" text-anchor="middle" font-size="17px"><text x="214.5" y="677">Apache</text></g><rect x="150" y="570" width="130" height="60" rx="9" ry="9" fill="#23445d" stroke="#b46504" pointer-events="all"/><g fill="#FFFFFF" font-family="Tahoma" font-weight="bold" text-anchor="middle" font-size="17px"><text x="214.5" y="607">Tomcat</text></g><rect x="150" y="500" width="130" height="60" rx="9" ry="9" fill="#23445d" stroke="#b46504" pointer-events="all"/><g fill="#FFFFFF" font-family="Tahoma" font-weight="bold" text-anchor="middle" font-size="17px"><text x="214.5" y="537">Nginx</text></g><path d="M 220 1040 L 250.03 1040 L 269.9 1040" fill="none" stroke="#ffffff" stroke-width="3" stroke-miterlimit="10" stroke-dasharray="9 9" pointer-events="stroke"/><path d="M 276.65 1040 L 267.65 1044.5 L 269.9 1040 L 267.65 1035.5 Z" fill="#ffffff" stroke="#ffffff" stroke-width="3" stroke-miterlimit="10" pointer-events="all"/><path d="M 55 1080 L 55 1150 L 55.07 1208.54" fill="none" stroke="#f3eded" stroke-width="3" stroke-miterlimit="10" pointer-events="stroke"/><path d="M 55.08 1215.29 L 50.57 1206.29 L 55.07 1208.54 L 59.57 1206.28 Z" fill="#f3eded" stroke="#f3eded" stroke-width="3" stroke-miterlimit="10" pointer-events="all"/><rect x="0" y="1000" width="220" height="80" rx="12" ry="12" fill="#23445d" stroke="#b46504" pointer-events="all"/><g fill="#FFFFFF" font-family="Tahoma" font-weight="bold" text-anchor="middle" font-size="17px"><text x="109.5" y="1047">Containers</text></g><rect x="290" y="1010" width="130" height="60" rx="9" ry="9" fill="#23445d" stroke="#b46504" pointer-events="all"/><g fill="#FFFFFF" font-family="Tahoma" font-weight="bold" text-anchor="middle" font-size="17px"><text x="354.5" y="1047">Docker</text></g><path d="M 170 1260 L 364.9 1260" fill="none" stroke="#ffffff" stroke-width="3" stroke-miterlimit="10" pointer-events="stroke"/><path d="M 371.65 1260 L 362.65 1264.5 L 364.9 1260 L 362.65 1255.5 Z" fill="#ffffff" stroke="#ffffff" stroke-width="3" stroke-miterlimit="10" pointer-events="all"/><rect x="0" y="1220" width="170" height="80" rx="12" ry="12" fill="#23445d" stroke="#b46504" pointer-events="all"/><g fill="#FFFFFF" font-family="Tahoma" font-weight="bold" text-anchor="middle" font-size="17px"><text x="84.5" y="1267">Cloud Providers</text></g><rect x="0" y="1340" width="100" height="60" rx="9" ry="9" fill="#23445d" stroke="#b46504" pointer-events="all"/><g fill="#FFFFFF" font-family="Tahoma" font-weight="bold" text-anchor="middle" font-size="17px"><text x="49.5" y="1377">AWS</text></g><rect x="0" y="1410" width="100" height="60" rx="9" ry="9" fill="#23445d" stroke="#b46504" pointer-events="all"/><g fill="#FFFFFF" font-family="Tahoma" font-weight="bold" text-anchor="middle" font-size="17px"><text x="49.5" y="1447">Azure</text></g><rect x="110" y="1340" width="130" height="60" rx="9" ry="9" fill="#23445d" stroke="#b46504" pointer-events="all"/><g fill="#FFFFFF" font-family="Tahoma" font-weight="bold" text-anchor="middle" font-size="17px"><text x="174.5" y="1377">Google Cloud</text></g><rect x="110" y="1410" width="130" height="60" rx="9" ry="9" fill="#23445d" stroke="#b46504" pointer-events="all"/><g fill="#FFFFFF" font-family="Tahoma" font-weight="bold" text-anchor="middle" font-size="17px"><text x="174.5" y="1447">Alibaba</text></g><path d="M 485 1300 L 485 1320 L 485.06 1329.9" fill="none" stroke="#ffffff" stroke-width="3" stroke-miterlimit="10" stroke-dasharray="9 9" pointer-events="stroke"/><path d="M 485.11 1336.65 L 480.55 1327.68 L 485.06 1329.9 L 489.55 1327.62 Z" fill="#ffffff" stroke="#ffffff" stroke-width="3" stroke-miterlimit="10" pointer-events="all"/><path d="M 595 1260 L 729.9 1260" fill="none" stroke="#ffffff" stroke-width="3" stroke-miterlimit="10" pointer-events="stroke"/><path d="M 736.65 1260 L 727.65 1264.5 L 729.9 1260 L 727.65 1255.5 Z" fill="#ffffff" stroke="#ffffff" stroke-width="3" stroke-miterlimit="10" pointer-events="all"/><rect x="375" y="1220" width="220" height="80" rx="12" ry="12" fill="#23445d" stroke="#b46504" pointer-events="all"/><g fill="#FFFFFF" font-family="Tahoma" font-weight="bold" text-anchor="middle" font-size="17px"><text x="484.5" y="1257">Network, Security </text><text x="484.5" y="1277">and Protocols</text></g><rect x="350" y="1340" width="130" height="60" rx="9" ry="9" fill="#23445d" stroke="#b46504" pointer-events="all"/><g fill="#FFFFFF" font-family="Tahoma" font-weight="bold" text-anchor="middle" font-size="17px"><text x="414.5" y="1377">FTP / SFTP</text></g><rect x="350" y="1410" width="130" height="60" rx="9" ry="9" fill="#23445d" stroke="#b46504" pointer-events="all"/><g fill="#FFFFFF" font-family="Tahoma" font-weight="bold" text-anchor="middle" font-size="17px"><text x="414.5" y="1447">HTTP</text></g><rect x="350" y="1480" width="130" height="60" rx="9" ry="9" fill="#23445d" stroke="#b46504" pointer-events="all"/><g fill="#FFFFFF" font-family="Tahoma" font-weight="bold" text-anchor="middle" font-size="17px"><text x="414.5" y="1517">SSL / TLS</text></g><rect x="490" y="1340" width="130" height="60" rx="9" ry="9" fill="#23445d" stroke="#b46504" pointer-events="all"/><g fill="#FFFFFF" font-family="Tahoma" font-weight="bold" text-anchor="middle" font-size="17px"><text x="554.5" y="1377">DNS</text></g><rect x="490" y="1410" width="130" height="60" rx="9" ry="9" fill="#23445d" stroke="#b46504" pointer-events="all"/><g fill="#FFFFFF" font-family="Tahoma" font-weight="bold" text-anchor="middle" font-size="17px"><text x="554.5" y="1447">HTTPS</text></g><rect x="490" y="1480" width="130" height="60" rx="9" ry="9" fill="#23445d" stroke="#b46504" pointer-events="all"/><g fill="#FFFFFF" font-family="Tahoma" font-weight="bold" text-anchor="middle" font-size="17px"><text x="554.5" y="1517">SSH</text></g><path d="M 782.5 1300 L 782.49 1320 L 782.42 1329.9" fill="none" stroke="#ffffff" stroke-width="3" stroke-miterlimit="10" stroke-dasharray="9 9" pointer-events="stroke"/><path d="M 782.38 1336.65 L 777.94 1327.62 L 782.42 1329.9 L 786.94 1327.67 Z" fill="#ffffff" stroke="#ffffff" stroke-width="3" stroke-miterlimit="10" pointer-events="all"/><path d="M 867.5 1300 L 867.5 1589.9" fill="none" stroke="#ffffff" stroke-width="3" stroke-miterlimit="10" pointer-events="stroke"/><path d="M 867.5 1596.65 L 863 1587.65 L 867.5 1589.9 L 872 1587.65 Z" fill="#ffffff" stroke="#ffffff" stroke-width="3" stroke-miterlimit="10" pointer-events="all"/><rect x="740" y="1220" width="170" height="80" rx="12" ry="12" fill="#23445d" stroke="#b46504" pointer-events="all"/><g fill="#FFFFFF" font-family="Tahoma" font-weight="bold" text-anchor="middle" font-size="17px"><text x="824.5" y="1267">Serverless</text></g><rect x="710" y="1340" width="100" height="60" rx="9" ry="9" fill="#23445d" stroke="#b46504" pointer-events="all"/><g fill="#FFFFFF" font-family="Tahoma" font-weight="bold" text-anchor="middle" font-size="17px"><text x="759.5" y="1377">Cloudflare</text></g><rect x="710" y="1410" width="100" height="60" rx="9" ry="9" fill="#23445d" stroke="#b46504" pointer-events="all"/><g fill="#FFFFFF" font-family="Tahoma" font-weight="bold" text-anchor="middle" font-size="17px"><text x="759.5" y="1447">Vercel</text></g><path d="M 825 1680 L 825 1700 L 825 1709.9" fill="none" stroke="#ffffff" stroke-width="3" stroke-miterlimit="10" stroke-dasharray="9 9" pointer-events="stroke"/><path d="M 825 1716.65 L 820.5 1707.65 L 825 1709.9 L 829.5 1707.65 Z" fill="#ffffff" stroke="#ffffff" stroke-width="3" stroke-miterlimit="10" pointer-events="all"/><path d="M 740 1640 L 690.1 1640" fill="none" stroke="#ffffff" stroke-width="3" stroke-miterlimit="10" pointer-events="stroke"/><path d="M 683.35 1640 L 692.35 1635.5 L 690.1 1640 L 692.35 1644.5 Z" fill="#ffffff" stroke="#ffffff" stroke-width="3" stroke-miterlimit="10" pointer-events="all"/><rect x="740" y="1600" width="170" height="80" rx="12" ry="12" fill="#23445d" stroke="#b46504" pointer-events="all"/><g fill="#FFFFFF" font-family="Tahoma" font-weight="bold" text-anchor="middle" font-size="17px"><text x="824.5" y="1637">Infrastructure</text><text x="824.5" y="1657">Provisioning</text></g><rect x="750" y="1730" width="150" height="60" rx="9" ry="9" fill="#23445d" stroke="#b46504" pointer-events="all"/><g fill="#FFFFFF" font-family="Tahoma" font-weight="bold" text-anchor="middle" font-size="17px"><text x="824.5" y="1767">Terraform</text></g><rect x="750" y="1800" width="150" height="60" rx="9" ry="9" fill="#23445d" stroke="#b46504" pointer-events="all"/><g fill="#FFFFFF" font-family="Tahoma" font-weight="bold" text-anchor="middle" font-size="17px"><text x="824.5" y="1837">Pulumi</text></g><rect x="750" y="1870" width="150" height="60" rx="9" ry="9" fill="#23445d" stroke="#b46504" pointer-events="all"/><g fill="#FFFFFF" font-family="Tahoma" font-weight="bold" text-anchor="middle" font-size="17px"><text x="824.5" y="1907">CloudFormation</text></g><path d="M 595 1680 L 595 1700 L 595 1709.9" fill="none" stroke="#ffffff" stroke-width="3" stroke-miterlimit="10" stroke-dasharray="9 9" pointer-events="stroke"/><path d="M 595 1716.65 L 590.5 1707.65 L 595 1709.9 L 599.5 1707.65 Z" fill="#ffffff" stroke="#ffffff" stroke-width="3" stroke-miterlimit="10" pointer-events="all"/><path d="M 510 1640 L 180.1 1640" fill="none" stroke="#ffffff" stroke-width="3" stroke-miterlimit="10" pointer-events="stroke"/><path d="M 173.35 1640 L 182.35 1635.5 L 180.1 1640 L 182.35 1644.5 Z" fill="#ffffff" stroke="#ffffff" stroke-width="3" stroke-miterlimit="10" pointer-events="all"/><rect x="510" y="1600" width="170" height="80" rx="12" ry="12" fill="#23445d" stroke="#b46504" pointer-events="all"/><g fill="#FFFFFF" font-family="Tahoma" font-weight="bold" text-anchor="middle" font-size="17px"><text x="594.5" y="1637">Configuration</text><text x="594.5" y="1657">Management</text></g><rect x="520" y="1730" width="150" height="60" rx="9" ry="9" fill="#23445d" stroke="#b46504" pointer-events="all"/><g fill="#FFFFFF" font-family="Tahoma" font-weight="bold" text-anchor="middle" font-size="17px"><text x="594.5" y="1767">Ansible</text></g><rect x="520" y="1800" width="150" height="60" rx="9" ry="9" fill="#23445d" stroke="#b46504" pointer-events="all"/><g fill="#FFFFFF" font-family="Tahoma" font-weight="bold" text-anchor="middle" font-size="17px"><text x="594.5" y="1837">Chef</text></g><rect x="520" y="1870" width="150" height="60" rx="9" ry="9" fill="#23445d" stroke="#b46504" pointer-events="all"/><g fill="#FFFFFF" font-family="Tahoma" font-weight="bold" text-anchor="middle" font-size="17px"><text x="594.5" y="1907">Puppet</text></g><path d="M 42.5 1680 L 42.49 1830 L 42.59 1969.9" fill="none" stroke="#ffffff" stroke-width="3" stroke-miterlimit="10" pointer-events="stroke"/><path d="M 42.6 1976.65 L 38.09 1967.65 L 42.59 1969.9 L 47.09 1967.64 Z" fill="#ffffff" stroke="#ffffff" stroke-width="3" stroke-miterlimit="10" pointer-events="all"/><path d="M 127.5 1680 L 127.51 1700 L 127.51 1709.9" fill="none" stroke="#ffffff" stroke-width="3" stroke-miterlimit="10" stroke-dasharray="9 9" pointer-events="stroke"/><path d="M 127.5 1716.65 L 123.01 1707.64 L 127.51 1709.9 L 132.01 1707.65 Z" fill="#ffffff" stroke="#ffffff" stroke-width="3" stroke-miterlimit="10" pointer-events="all"/><rect x="0" y="1600" width="170" height="80" rx="12" ry="12" fill="#23445d" stroke="#b46504" pointer-events="all"/><g fill="#FFFFFF" font-family="Tahoma" font-weight="bold" text-anchor="middle" font-size="17px"><text x="84.5" y="1647">CI/CD Tools</text></g><rect x="65" y="1730" width="150" height="60" rx="9" ry="9" fill="#23445d" stroke="#b46504" pointer-events="all"/><g fill="#FFFFFF" font-family="Tahoma" font-weight="bold" text-anchor="middle" font-size="17px"><text x="139.5" y="1767">Gitlab CI</text></g><rect x="65" y="1800" width="150" height="60" rx="9" ry="9" fill="#23445d" stroke="#b46504" pointer-events="all"/><g fill="#FFFFFF" font-family="Tahoma" font-weight="bold" text-anchor="middle" font-size="17px"><text x="139.5" y="1837">GitHub Actions</text></g><rect x="225" y="1800" width="150" height="60" rx="9" ry="9" fill="#23445d" stroke="#b46504" pointer-events="all"/><g fill="#FFFFFF" font-family="Tahoma" font-weight="bold" text-anchor="middle" font-size="17px"><text x="299.5" y="1837">Jenkins</text></g><rect x="225" y="1730" width="150" height="60" rx="9" ry="9" fill="#23445d" stroke="#b46504" pointer-events="all"/><g fill="#FFFFFF" font-family="Tahoma" font-weight="bold" text-anchor="middle" font-size="17px"><text x="299.5" y="1757">Azure DevOps </text><text x="299.5" y="1777">Services</text></g><path d="M 200 2020 L 319.9 2020" fill="none" stroke="#ffffff" stroke-width="3" stroke-miterlimit="10" pointer-events="stroke"/><path d="M 326.65 2020 L 317.65 2024.5 L 319.9 2020 L 317.65 2015.5 Z" fill="#ffffff" stroke="#ffffff" stroke-width="3" stroke-miterlimit="10" pointer-events="all"/><path d="M 100 2060 L 100.03 2080 L 100.01 2089.9" fill="none" stroke="#ffffff" stroke-width="3" stroke-miterlimit="10" stroke-dasharray="9 9" pointer-events="stroke"/><path d="M 100 2096.65 L 95.52 2087.64 L 100.01 2089.9 L 104.52 2087.65 Z" fill="#ffffff" stroke="#ffffff" stroke-width="3" stroke-miterlimit="10" pointer-events="all"/><rect x="0" y="1980" width="200" height="80" rx="12" ry="12" fill="#23445d" stroke="#b46504" pointer-events="all"/><g fill="#FFFFFF" font-family="Tahoma" font-weight="bold" text-anchor="middle" font-size="17px"><text x="99.5" y="2027">Secret Management</text></g><rect x="30" y="2180" width="150" height="60" rx="9" ry="9" fill="#23445d" stroke="#b46504" pointer-events="all"/><g fill="#FFFFFF" font-family="Tahoma" font-weight="bold" text-anchor="middle" font-size="17px"><text x="104.5" y="2217">SOPS</text></g><rect x="30" y="2110" width="150" height="60" rx="9" ry="9" fill="#23445d" stroke="#b46504" pointer-events="all"/><g fill="#FFFFFF" font-family="Tahoma" font-weight="bold" text-anchor="middle" font-size="17px"><text x="104.5" y="2147">HashiCorp Vault</text></g><rect x="30" y="2250" width="150" height="60" rx="9" ry="9" fill="#23445d" stroke="#b46504" pointer-events="all"/><g fill="#FFFFFF" font-family="Tahoma" font-weight="bold" text-anchor="middle" font-size="17px"><text x="104.5" y="2277">Cloud Specific </text><text x="104.5" y="2297">Tools</text></g><path d="M 430 2060 L 430.03 2080 L 430.01 2089.9" fill="none" stroke="#f5f5f5" stroke-width="3" stroke-miterlimit="10" stroke-dasharray="9 9" pointer-events="stroke"/><path d="M 430 2096.65 L 425.52 2087.64 L 430.01 2089.9 L 434.52 2087.65 Z" fill="#f5f5f5" stroke="#f5f5f5" stroke-width="3" stroke-miterlimit="10" pointer-events="all"/><path d="M 530 2020 L 699.9 2020" fill="none" stroke="#f5f4f4" stroke-width="3" stroke-miterlimit="10" pointer-events="stroke"/><path d="M 706.65 2020 L 697.65 2024.5 L 699.9 2020 L 697.65 2015.5 Z" fill="#f5f4f4" stroke="#f5f4f4" stroke-width="3" stroke-miterlimit="10" pointer-events="all"/><rect x="330" y="1980" width="200" height="80" rx="12" ry="12" fill="#23445d" stroke="#b46504" pointer-events="all"/><g fill="#FFFFFF" font-family="Tahoma" font-weight="bold" text-anchor="middle" font-size="17px"><text x="429.5" y="2027">Monitoring</text></g><rect x="0" y="0" width="160" height="80" rx="12" ry="12" fill="#23445d" stroke="#b46504" pointer-events="all"/><g fill="#ffffff" font-family="Tahoma" font-weight="bold" text-anchor="middle" font-size="21px"><text x="79.5" y="49">Topic</text></g><rect x="0" y="170" width="160" height="70" rx="10.5" ry="10.5" fill="#356248" stroke="#2d7600" pointer-events="all"/><g fill="#ffffff" font-family="Tahoma" font-weight="bold" text-anchor="middle" font-size="21px"><text x="79.5" y="214">Confident</text></g><rect x="0" y="90" width="160" height="70" rx="10.5" ry="10.5" fill="#1ba1e2" stroke="#006eaf" pointer-events="all"/><g fill="#ffffff" font-family="Tahoma" font-weight="bold" text-anchor="middle" font-size="21px"><text x="79.5" y="121.5">Learning / </text><text x="79.5" y="146.5">Basics </text></g><path d="M 220 340 L 185.51 340 L 160.1 340" fill="none" stroke="#fcfcfc" stroke-width="3" stroke-miterlimit="10" stroke-dasharray="9 9" pointer-events="stroke"/><path d="M 153.35 340 L 162.35 335.5 L 160.1 340 L 162.35 344.5 Z" fill="#fcfcfc" stroke="#fcfcfc" stroke-width="3" stroke-miterlimit="10" pointer-events="all"/><rect x="220" y="300" width="200" height="80" rx="12" ry="12" fill="#23445d" stroke="#b46504" pointer-events="all"/><g fill="#FFFFFF" font-family="Tahoma" font-weight="bold" text-anchor="middle" font-size="17px"><text x="319.5" y="347">Static Webpages</text></g><rect x="0" y="280" width="130" height="60" rx="9" ry="9" fill="#23445d" stroke="#b46504" pointer-events="all"/><g fill="#FFFFFF" font-family="Tahoma" font-weight="bold" text-anchor="middle" font-size="17px"><text x="64.5" y="317">HTML</text></g><rect x="0" y="350" width="130" height="60" rx="9" ry="9" fill="#23445d" stroke="#b46504" pointer-events="all"/><g fill="#FFFFFF" font-family="Tahoma" font-weight="bold" text-anchor="middle" font-size="17px"><text x="64.5" y="387">CSS</text></g><rect x="430" y="2110" width="155" height="60" rx="9" ry="9" fill="#23445d" stroke="#b46504" pointer-events="all"/><g fill="#FFFFFF" font-family="Tahoma" font-weight="bold" text-anchor="middle" font-size="17px"><text x="507" y="2147">Prometheus</text></g><rect x="330" y="2110" width="90" height="60" rx="9" ry="9" fill="#23445d" stroke="#b46504" pointer-events="all"/><g fill="#FFFFFF" font-family="Tahoma" font-weight="bold" text-anchor="middle" font-size="17px"><text x="374.5" y="2147">Grafana</text></g><rect x="330" y="2250" width="90" height="60" rx="9" ry="9" fill="#23445d" stroke="#b46504" pointer-events="all"/><g fill="#FFFFFF" font-family="Tahoma" font-weight="bold" text-anchor="middle" font-size="17px"><text x="374.5" y="2287">Loki</text></g><rect x="330" y="2180" width="90" height="60" rx="9" ry="9" fill="#23445d" stroke="#b46504" pointer-events="all"/><g fill="#FFFFFF" font-family="Tahoma" font-weight="bold" text-anchor="middle" font-size="17px"><text x="374.5" y="2217">Nagios</text></g><path d="M 760 2060 L 760.03 2080 L 760.01 2089.9" fill="none" stroke="#fafafa" stroke-width="3" stroke-miterlimit="10" stroke-dasharray="9 9" pointer-events="stroke"/><path d="M 760 2096.65 L 755.52 2087.64 L 760.01 2089.9 L 764.52 2087.65 Z" fill="#fafafa" stroke="#fafafa" stroke-width="3" stroke-miterlimit="10" pointer-events="all"/><rect x="710" y="1980" width="200" height="80" rx="12" ry="12" fill="#23445d" stroke="#b46504" pointer-events="all"/><g fill="#FFFFFF" font-family="Tahoma" font-weight="bold" text-anchor="middle" font-size="17px"><text x="809.5" y="2017">Container </text><text x="809.5" y="2037">Orchestration</text></g><rect x="430" y="2250" width="155" height="60" rx="9" ry="9" fill="#23445d" stroke="#b46504" pointer-events="all"/><g fill="#FFFFFF" font-family="Tahoma" font-weight="bold" text-anchor="middle" font-size="17px"><text x="507" y="2287">Elastic Stack</text></g><rect x="430" y="2180" width="155" height="60" rx="9" ry="9" fill="#23445d" stroke="#b46504" pointer-events="all"/><g fill="#FFFFFF" font-family="Tahoma" font-weight="bold" text-anchor="middle" font-size="17px"><text x="507" y="2207">Blackbox</text><text x="507" y="2227">Exporter</text></g><path d="M 810 2440 L 810.03 2460 L 810.01 2469.9" fill="none" stroke="#f2f2f2" stroke-width="3" stroke-miterlimit="10" stroke-dasharray="9 9" pointer-events="stroke"/><path d="M 810 2476.65 L 805.52 2467.64 L 810.01 2469.9 L 814.52 2467.65 Z" fill="#f2f2f2" stroke="#f2f2f2" stroke-width="3" stroke-miterlimit="10" pointer-events="all"/><path d="M 710 2400 L 580.1 2400" fill="none" stroke="#f7f7f7" stroke-width="3" stroke-miterlimit="10" pointer-events="stroke"/><path d="M 573.35 2400 L 582.35 2395.5 L 580.1 2400 L 582.35 2404.5 Z" fill="#f7f7f7" stroke="#f7f7f7" stroke-width="3" stroke-miterlimit="10" pointer-events="all"/><rect x="710" y="2360" width="200" height="80" rx="12" ry="12" fill="#23445d" stroke="#b46504" pointer-events="all"/><g fill="#FFFFFF" font-family="Tahoma" font-weight="bold" text-anchor="middle" font-size="17px"><text x="809.5" y="2407">GitOps</text></g><rect x="682.5" y="2110" width="155" height="60" rx="9" ry="9" fill="#23445d" stroke="#b46504" pointer-events="all"/><g fill="#FFFFFF" font-family="Tahoma" font-weight="bold" text-anchor="middle" font-size="17px"><text x="759.5" y="2147">Kubernetes</text></g><rect x="682.5" y="2180" width="155" height="60" rx="9" ry="9" fill="#23445d" stroke="#b46504" pointer-events="all"/><g fill="#FFFFFF" font-family="Tahoma" font-weight="bold" text-anchor="middle" font-size="17px"><text x="759.5" y="2217">Rancher</text></g><rect x="682.5" y="2250" width="155" height="60" rx="9" ry="9" fill="#23445d" stroke="#b46504" pointer-events="all"/><g fill="#FFFFFF" font-family="Tahoma" font-weight="bold" text-anchor="middle" font-size="17px"><text x="759.5" y="2287">AKS</text></g><path d="M 879.99 2349.9 L 879.8 2059.92" fill="none" stroke="#f8f6f6" stroke-width="3" stroke-miterlimit="10" pointer-events="stroke"/><path d="M 880 2356.65 L 875.49 2347.65 L 879.99 2349.9 L 884.49 2347.64 Z" fill="#f8f6f6" stroke="#f8f6f6" stroke-width="3" stroke-miterlimit="10" pointer-events="all"/><rect x="745" y="2490" width="155" height="60" rx="9" ry="9" fill="#23445d" stroke="#b46504" pointer-events="all"/><g fill="#FFFFFF" font-family="Tahoma" font-weight="bold" text-anchor="middle" font-size="17px"><text x="822" y="2527">ArgoCD</text></g><path d="M 470 2440 L 470.03 2460 L 470.01 2469.9" fill="none" stroke="#fcfcfc" stroke-width="3" stroke-miterlimit="10" stroke-dasharray="9 9" pointer-events="stroke"/><path d="M 470 2476.65 L 465.52 2467.64 L 470.01 2469.9 L 474.52 2467.65 Z" fill="#fcfcfc" stroke="#fcfcfc" stroke-width="3" stroke-miterlimit="10" pointer-events="all"/><path d="M 370 2400 L 210.1 2400" fill="none" stroke="#f9f1f1" stroke-width="3" stroke-miterlimit="10" pointer-events="stroke"/><path d="M 203.35 2400 L 212.35 2395.5 L 210.1 2400 L 212.35 2404.5 Z" fill="#f9f1f1" stroke="#f9f1f1" stroke-width="3" stroke-miterlimit="10" pointer-events="all"/><rect x="370" y="2360" width="200" height="80" rx="12" ry="12" fill="#23445d" stroke="#b46504" pointer-events="all"/><g fill="#FFFFFF" font-family="Tahoma" font-weight="bold" text-anchor="middle" font-size="17px"><text x="469.5" y="2407">Service Mesh</text></g><path d="M 150 2440 L 150.03 2460 L 150.01 2469.9" fill="none" stroke="#f8f6f6" stroke-width="3" stroke-miterlimit="10" stroke-dasharray="9 9" pointer-events="stroke"/><path d="M 150 2476.65 L 145.52 2467.64 L 150.01 2469.9 L 154.52 2467.65 Z" fill="#f8f6f6" stroke="#f8f6f6" stroke-width="3" stroke-miterlimit="10" pointer-events="all"/><rect x="370" y="2490" width="90" height="60" rx="9" ry="9" fill="#23445d" stroke="#b46504" pointer-events="all"/><g fill="#FFFFFF" font-family="Tahoma" font-weight="bold" text-anchor="middle" font-size="17px"><text x="414.5" y="2527">Consul</text></g><rect x="480" y="2490" width="90" height="60" rx="9" ry="9" fill="#23445d" stroke="#b46504" pointer-events="all"/><g fill="#FFFFFF" font-family="Tahoma" font-weight="bold" text-anchor="middle" font-size="17px"><text x="524.5" y="2527">Istio</text></g><rect x="80" y="2490" width="160" height="60" rx="9" ry="9" fill="#23445d" stroke="#b46504" pointer-events="all"/><g fill="#FFFFFF" font-family="Tahoma" font-weight="bold" text-anchor="middle" font-size="17px"><text x="159.5" y="2527">Availability</text></g><rect x="80" y="2560" width="160" height="60" rx="9" ry="9" fill="#23445d" stroke="#b46504" pointer-events="all"/><g fill="#FFFFFF" font-family="Tahoma" font-weight="bold" text-anchor="middle" font-size="17px"><text x="159.5" y="2587">Data </text><text x="159.5" y="2607">Management</text></g><rect x="80" y="2630" width="160" height="60" rx="9" ry="9" fill="#23445d" stroke="#b46504" pointer-events="all"/><g fill="#FFFFFF" font-family="Tahoma" font-weight="bold" text-anchor="middle" font-size="17px"><text x="159.5" y="2657">Design and </text><text x="159.5" y="2677">Implementation</text></g><rect x="80" y="2700" width="160" height="60" rx="9" ry="9" fill="#23445d" stroke="#b46504" pointer-events="all"/><g fill="#FFFFFF" font-family="Tahoma" font-weight="bold" text-anchor="middle" font-size="17px"><text x="159.5" y="2727">Management and</text><text x="159.5" y="2747">Monitoring</text></g><path d="M 445 2790 L 445 2770 L 444.89 2760.1" fill="none" stroke="#f7f7f7" stroke-width="3" stroke-miterlimit="10" stroke-dasharray="9 9" pointer-events="stroke"/><path d="M 444.82 2753.35 L 449.41 2762.3 L 444.89 2760.1 L 440.42 2762.4 Z" fill="#f7f7f7" stroke="#f7f7f7" stroke-width="3" stroke-miterlimit="10" pointer-events="all"/><path d="M 445 2870 L 444.85 2889.9" fill="none" stroke="#fbf9f9" stroke-width="3" stroke-miterlimit="10" stroke-dasharray="9 9" pointer-events="stroke"/><path d="M 444.8 2896.65 L 440.37 2887.61 L 444.85 2889.9 L 449.37 2887.68 Z" fill="#fbf9f9" stroke="#fbf9f9" stroke-width="3" stroke-miterlimit="10" pointer-events="all"/><path d="M 565 2830 L 649.9 2830" fill="none" stroke="#f6efef" stroke-width="3" stroke-miterlimit="10" pointer-events="stroke"/><path d="M 656.65 2830 L 647.65 2834.5 L 649.9 2830 L 647.65 2825.5 Z" fill="#f6efef" stroke="#f6efef" stroke-width="3" stroke-miterlimit="10" pointer-events="all"/><rect x="325" y="2790" width="240" height="80" rx="12" ry="12" fill="#23445d" stroke="#b46504" pointer-events="all"/><g fill="#FFFFFF" font-family="Tahoma" font-weight="bold" text-anchor="middle" font-size="21px"><text x="444.5" y="2839">Databases</text></g><path d="M 50 2440 L 50.03 2830 L 314.9 2830" fill="none" stroke="#f5f4f4" stroke-width="3" stroke-miterlimit="10" pointer-events="stroke"/><path d="M 321.65 2830 L 312.65 2834.5 L 314.9 2830 L 312.65 2825.5 Z" fill="#f5f4f4" stroke="#f5f4f4" stroke-width="3" stroke-miterlimit="10" pointer-events="all"/><rect x="0" y="2360" width="200" height="80" rx="12" ry="12" fill="#23445d" stroke="#b46504" pointer-events="all"/><g fill="#FFFFFF" font-family="Tahoma" font-weight="bold" text-anchor="middle" font-size="17px"><text x="99.5" y="2407">Cloud Design Patterns</text></g><rect x="450" y="2900" width="110" height="60" rx="9" ry="9" fill="#23445d" stroke="#b46504" pointer-events="all"/><g fill="#FFFFFF" font-family="Tahoma" font-weight="bold" text-anchor="middle" font-size="17px"><text x="504.5" y="2937">PostgreSQL</text></g><rect x="450" y="2690" width="110" height="60" rx="9" ry="9" fill="#23445d" stroke="#b46504" pointer-events="all"/><g fill="#FFFFFF" font-family="Tahoma" font-weight="bold" text-anchor="middle" font-size="17px"><text x="504.5" y="2727">MongoDB</text></g><rect x="325" y="2900" width="110" height="60" rx="9" ry="9" fill="#23445d" stroke="#b46504" pointer-events="all"/><g fill="#FFFFFF" font-family="Tahoma" font-weight="bold" text-anchor="middle" font-size="17px"><text x="379.5" y="2937">MySQL</text></g><rect x="325" y="2690" width="110" height="60" rx="9" ry="9" fill="#23445d" stroke="#b46504" pointer-events="all"/><g fill="#FFFFFF" font-family="Tahoma" font-weight="bold" text-anchor="middle" font-size="17px"><text x="379.5" y="2727">Neo4J</text></g><rect x="450" y="2620" width="110" height="60" rx="9" ry="9" fill="#23445d" stroke="#b46504" pointer-events="all"/><g fill="#FFFFFF" font-family="Tahoma" font-weight="bold" text-anchor="middle" font-size="17px"><text x="504.5" y="2657">CouchDB</text></g><rect x="325" y="2620" width="110" height="60" rx="9" ry="9" fill="#23445d" stroke="#b46504" pointer-events="all"/><g fill="#FFFFFF" font-family="Tahoma" font-weight="bold" text-anchor="middle" font-size="17px"><text x="379.5" y="2657">MariaDB</text></g><rect x="325" y="2970" width="110" height="60" rx="9" ry="9" fill="#23445d" stroke="#b46504" pointer-events="all"/><g fill="#FFFFFF" font-family="Tahoma" font-weight="bold" text-anchor="middle" font-size="17px"><text x="379.5" y="3007">Oracle</text></g><rect x="660" y="2790" width="240" height="80" rx="12" ry="12" fill="#23445d" stroke="#b46504" pointer-events="all"/><g fill="#FFFFFF" font-family="Tahoma" font-weight="bold" text-anchor="middle" font-size="21px"><text x="779.5" y="2839">Keep Learning</text></g><path d="M 595 920 L 595 959.9" fill="none" stroke="#ffffff" stroke-width="3" stroke-miterlimit="10" stroke-dasharray="9 9" pointer-events="stroke"/><path d="M 595 966.65 L 590.5 957.65 L 595 959.9 L 599.5 957.65 Z" fill="#ffffff" stroke="#ffffff" stroke-width="3" stroke-miterlimit="10" pointer-events="all"/><path d="M 80 1300 L 80.49 1321.03 L 80.32 1329.9" fill="none" stroke="#ffffff" stroke-width="3" stroke-miterlimit="10" stroke-dasharray="9 9" pointer-events="stroke"/><path d="M 80.19 1336.65 L 75.86 1327.56 L 80.32 1329.9 L 84.86 1327.73 Z" fill="#ffffff" stroke="#ffffff" stroke-width="3" stroke-miterlimit="10" pointer-events="all"/></g></svg>