<svg xmlns="http://www.w3.org/2000/svg" width="920" height="3031" viewBox="-0.5 -0.5 920 3031">
  <path d="M440 80v69.9" fill="none" stroke="#9287e8" stroke-width="3" stroke-miterlimit="10" pointer-events="stroke"/>
  <path d="m440 156.65-4.5-9 4.5 2.25 4.5-2.25Z" fill="#9287e8" stroke="#9287e8" stroke-width="3" stroke-miterlimit="10" pointer-events="all"/>
  <rect x="320" width="240" height="80" rx="12" ry="12" fill="#23445d" stroke="#b46504" pointer-events="all"/>
  <g fill="#FFF" font-family="Tahoma" font-weight="bold" text-anchor="middle" font-size="21">
    <text x="439.5" y="36.5"> Road to DevOps </text>
    <text x="439.5" y="61.5">Expert</text>
  </g>
  <path d="m910 380-47.52.04.02 239.86" fill="none" stroke="#9287e8" stroke-width="3" stroke-miterlimit="10" pointer-events="stroke"/>
  <path d="m862.5 626.65-4.5-9 4.5 2.25 4.5-2.25Z" fill="#9287e8" stroke="#9287e8" stroke-width="3" stroke-miterlimit="10" pointer-events="all"/>
  <rect x="720" y="340" width="190" height="80" rx="12" ry="12" fill="#23445d" stroke="#b46504" pointer-events="all"/>
  <text x="814.5" y="387" fill="#FFF" font-family="Tahoma" font-weight="bold" text-anchor="middle" font-size="17">Operating Systems</text>
  <path d="m560 200 35.04.04 24.86-.25" fill="none" stroke="#9287e8" stroke-width="3" stroke-miterlimit="10" stroke-dasharray="9 9" pointer-events="stroke"/>
  <path d="m626.65 199.72-8.96 4.59 2.21-4.52-2.3-4.48Z" fill="#9287e8" stroke="#9287e8" stroke-width="3" stroke-miterlimit="10" pointer-events="all"/>
  <path d="M440 240v140.04l269.9-.04" fill="none" stroke="#9287e8" stroke-width="3" stroke-miterlimit="10" pointer-events="stroke"/>
  <path d="m716.65 380-9 4.5 2.25-4.5-2.25-4.5Z" fill="#9287e8" stroke="#9287e8" stroke-width="3" stroke-miterlimit="10" pointer-events="all"/>
  <path d="M380 240v50.78" fill="none" stroke="#9287e8" stroke-width="3" stroke-miterlimit="10" pointer-events="stroke"/>
  <path d="m380 297.53-4.5-9 4.5 2.25 4.5-2.25Z" fill="#9287e8" stroke="#9287e8" stroke-width="3" stroke-miterlimit="10" pointer-events="all"/>
  <rect x="320" y="160" width="240" height="80" rx="12" ry="12" fill="#23445d" stroke="#b46504" pointer-events="all"/>
  <g fill="#FFF" font-family="Tahoma" font-weight="bold" text-anchor="middle" font-size="17">
    <text x="439.5" y="197">Programming Languages </text>
    <text x="439.5" y="217"> External Packages</text>
  </g>
  <rect x="640" y="100" width="130" height="60" rx="9" ry="9" fill="#23445d" stroke="#b46504" pointer-events="all"/>
  <text x="704.5" y="137" fill="#fff" font-family="Tahoma" font-weight="bold" text-anchor="middle" font-size="17">Python</text>
  <rect x="780" y="100" width="130" height="60" rx="9" ry="9" fill="#23445d" stroke="#b46504" pointer-events="all"/>
  <text x="844.5" y="137" fill="#fff" font-family="Tahoma" font-weight="bold" text-anchor="middle" font-size="17">Go</text>
  <rect x="640" y="170" width="130" height="60" rx="9" ry="9" fill="#23445d" stroke="#b46504" pointer-events="all"/>
  <text x="704.5" y="207" fill="#fff" font-family="Tahoma" font-weight="bold" text-anchor="middle" font-size="17">Tailwind</text>
  <rect x="780" y="170" width="130" height="60" rx="9" ry="9" fill="#23445d" stroke="#b46504" pointer-events="all"/>
  <text x="844.5" y="207" fill="#fff" font-family="Tahoma" font-weight="bold" text-anchor="middle" font-size="17">React</text>
  <rect x="640" y="240" width="130" height="60" rx="9" ry="9" fill="#1BA1E2" stroke="#b46504" pointer-events="all"/>
  <text x="704.5" y="277" fill="#fff" font-family="Tahoma" font-weight="bold" text-anchor="middle" font-size="17">Javascript</text>
  <rect x="780" y="240" width="130" height="60" rx="9" ry="9" fill="#1BA1E2" stroke="#b46504" pointer-events="all"/>
  <text x="844.5" y="277" fill="#fff" font-family="Tahoma" font-weight="bold" text-anchor="middle" font-size="17">Node/NPM</text>
  <rect x="450" y="440" width="130" height="60" rx="9" ry="9" fill="#018B0F" stroke="#b46504" pointer-events="all"/>
  <text x="514.5" y="477" fill="#FFF" font-family="Tahoma" font-weight="bold" text-anchor="middle" font-size="17">Windows</text>
  <rect x="590" y="440" width="130" height="60" rx="9" ry="9" fill="#018B0F" stroke="#b46504" pointer-events="all"/>
  <text x="654.5" y="477" fill="#FFF" font-family="Tahoma" font-weight="bold" text-anchor="middle" font-size="17">Ubuntu</text>
  <rect x="590" y="510" width="130" height="60" rx="9" ry="9" fill="#23445d" stroke="#b46504" pointer-events="all"/>
  <text x="654.5" y="547" fill="#FFF" font-family="Tahoma" font-weight="bold" text-anchor="middle" font-size="17">RHEL</text>
  <path d="m720 670-29.52.04-20.38-.03" fill="none" stroke="#9287e8" stroke-width="3" stroke-miterlimit="10" stroke-dasharray="9 9" pointer-events="stroke"/>
  <path d="m663.35 670 9.01-4.48-2.26 4.49 2.25 4.51Z" fill="#9287e8" stroke="#9287e8" stroke-width="3" stroke-miterlimit="10" pointer-events="all"/>
  <path d="M862.5 710v119.9" fill="none" stroke="#9287e8" stroke-width="3" stroke-miterlimit="10" pointer-events="stroke"/>
  <path d="m862.5 836.65-4.5-9 4.5 2.25 4.5-2.25Z" fill="#9287e8" stroke="#9287e8" stroke-width="3" stroke-miterlimit="10" pointer-events="all"/>
  <rect x="720" y="630" width="190" height="80" rx="12" ry="12" fill="#23445d" stroke="#b46504" pointer-events="all"/>
  <text x="814.5" y="677" fill="#FFF" font-family="Tahoma" font-weight="bold" text-anchor="middle" font-size="17">Scripting</text>
  <rect x="380" y="630" width="130" height="60" rx="9" ry="9" fill="#018B0F" stroke="#b46504" pointer-events="all"/>
  <text x="444.5" y="667" fill="#FFF" font-family="Tahoma" font-weight="bold" text-anchor="middle" font-size="17">Bash</text>
  <rect x="520" y="630" width="130" height="60" rx="9" ry="9" fill="#1BA1E2" stroke="#b46504" pointer-events="all"/>
  <text x="584.5" y="667" fill="#FFF" font-family="Tahoma" font-weight="bold" text-anchor="middle" font-size="17">PowerShell</text>
  <rect x="520" y="700" width="130" height="60" rx="9" ry="9" fill="#23445d" stroke="#b46504" pointer-events="all"/>
  <text x="584.5" y="737" fill="#FFF" font-family="Tahoma" font-weight="bold" text-anchor="middle" font-size="17">Batch</text>
  <path d="M815 420v80h-64.9" fill="none" stroke="#9287e8" stroke-width="3" stroke-miterlimit="10" stroke-dasharray="9 9" pointer-events="stroke"/>
  <path d="m743.35 500 9-4.5-2.25 4.5 2.25 4.5Z" fill="#9287e8" stroke="#9287e8" stroke-width="3" stroke-miterlimit="10" pointer-events="all"/>
  <path d="m815 920 .04 25-.02 14.9" fill="none" stroke="#9287e8" stroke-width="3" stroke-miterlimit="10" stroke-dasharray="9 9" pointer-events="stroke"/>
  <path d="m815.01 966.65-4.49-9.01 4.5 2.26 4.5-2.25Z" fill="#9287e8" stroke="#9287e8" stroke-width="3" stroke-miterlimit="10" pointer-events="all"/>
  <path d="M720 880h-59.9" fill="none" stroke="#9287e8" stroke-width="3" stroke-miterlimit="10" pointer-events="stroke"/>
  <path d="m653.35 880 9-4.5-2.25 4.5 2.25 4.5Z" fill="#9287e8" stroke="#9287e8" stroke-width="3" stroke-miterlimit="10" pointer-events="all"/>
  <rect x="720" y="840" width="190" height="80" rx="12" ry="12" fill="#23445d" stroke="#b46504" pointer-events="all"/>
  <g fill="#FFF" font-family="Tahoma" font-weight="bold" text-anchor="middle" font-size="17">
    <text x="814.5" y="877">Version Control </text>
    <text x="814.5" y="897">Systems</text>
  </g>
  <rect x="750" y="980" width="130" height="60" rx="9" ry="9" fill="#018B0F" stroke="#b46504" pointer-events="all"/>
  <text x="814.5" y="1017" fill="#FFF" font-family="Tahoma" font-weight="bold" text-anchor="middle" font-size="17">Git</text>
  <path d="M460 880H290.1" fill="none" stroke="#9287e8" stroke-width="3" stroke-miterlimit="10" pointer-events="stroke"/>
  <path d="m283.35 880 9-4.5-2.25 4.5 2.25 4.5Z" fill="#9287e8" stroke="#9287e8" stroke-width="3" stroke-miterlimit="10" pointer-events="all"/>
  <rect x="460" y="840" width="190" height="80" rx="12" ry="12" fill="#23445d" stroke="#b46504" pointer-events="all"/>
  <text x="554.5" y="887" fill="#FFF" font-family="Tahoma" font-weight="bold" text-anchor="middle" font-size="17">VCS Hosting</text>
  <rect x="520" y="980" width="130" height="60" rx="9" ry="9" fill="#1BA1E2" stroke="#b46504" pointer-events="all"/>
  <text x="584.5" y="1017" fill="#FFF" font-family="Tahoma" font-weight="bold" text-anchor="middle" font-size="17">GitHub</text>
  <rect x="520" y="1050" width="130" height="60" rx="9" ry="9" fill="#018B0F" stroke="#b46504" pointer-events="all"/>
  <text x="584.5" y="1087" fill="#FFF" font-family="Tahoma" font-weight="bold" text-anchor="middle" font-size="17">GitLab</text>
  <rect x="520" y="1120" width="130" height="60" rx="9" ry="9" fill="#018B0F" stroke="#b46504" pointer-events="all"/>
  <text x="584.5" y="1157" fill="#FFF" font-family="Tahoma" font-weight="bold" text-anchor="middle" font-size="17">Azure DevOps</text>
  <path d="M210 840v-49.9" fill="none" stroke="#9287e8" stroke-width="3" stroke-miterlimit="10" stroke-dasharray="9 9" pointer-events="stroke"/>
  <path d="m210 783.35 4.5 9-4.5-2.25-4.5 2.25Z" fill="#9287e8" stroke="#9287e8" stroke-width="3" stroke-miterlimit="10" pointer-events="all"/>
  <path d="m70 920-.03 68.78" fill="none" stroke="#9287e8" stroke-width="3" stroke-miterlimit="10" pointer-events="stroke"/>
  <path d="m69.96 995.53-4.49-9.01 4.5 2.26 4.5-2.25Z" fill="#9287e8" stroke="#9287e8" stroke-width="3" stroke-miterlimit="10" pointer-events="all"/>
  <path d="m70 840-.4-49.9" fill="none" stroke="#9287e8" stroke-width="3" stroke-miterlimit="10" stroke-dasharray="9 9" pointer-events="stroke"/>
  <path d="m69.55 783.35 4.57 8.97-4.52-2.22-4.48 2.29Z" fill="#9287e8" stroke="#9287e8" stroke-width="3" stroke-miterlimit="10" pointer-events="all"/>
  <rect y="840" width="280" height="80" rx="12" ry="12" fill="#23445d" stroke="#b46504" pointer-events="all"/>
  <g fill="#FFF" font-family="Tahoma" font-weight="bold" text-anchor="middle" font-size="17">
    <text x="139.5" y="877">What is and how to </text>
    <text x="139.5" y="897">setup a __?</text>
  </g>
  <rect y="710" width="140" height="60" rx="9" ry="9" fill="#018B0F" stroke="#b46504" pointer-events="all"/>
  <text x="69.5" y="747" fill="#FFF" font-family="Tahoma" font-weight="bold" text-anchor="middle" font-size="17">Firewall</text>
  <rect x="150" y="710" width="130" height="60" rx="9" ry="9" fill="#018B0F" stroke="#b46504" pointer-events="all"/>
  <text x="214.5" y="747" fill="#FFF" font-family="Tahoma" font-weight="bold" text-anchor="middle" font-size="17">Load Balancer</text>
  <rect y="640" width="140" height="60" rx="9" ry="9" fill="#1BA1E2" stroke="#b46504" pointer-events="all"/>
  <text x="69.5" y="677" fill="#FFF" font-family="Tahoma" font-weight="bold" text-anchor="middle" font-size="17">Forward Proxy</text>
  <rect y="570" width="140" height="60" rx="9" ry="9" fill="#018B0F" stroke="#b46504" pointer-events="all"/>
  <text x="69.5" y="607" fill="#FFF" font-family="Tahoma" font-weight="bold" text-anchor="middle" font-size="17">Reverse Proxy</text>
  <rect x="150" y="640" width="130" height="60" rx="9" ry="9" fill="#1BA1E2" stroke="#b46504" pointer-events="all"/>
  <text x="214.5" y="677" fill="#FFF" font-family="Tahoma" font-weight="bold" text-anchor="middle" font-size="17">Apache</text>
  <rect x="150" y="570" width="130" height="60" rx="9" ry="9" fill="#1BA1E2" stroke="#b46504" pointer-events="all"/>
  <text x="214.5" y="607" fill="#FFF" font-family="Tahoma" font-weight="bold" text-anchor="middle" font-size="17">Tomcat</text>
  <rect x="150" y="500" width="130" height="60" rx="9" ry="9" fill="#018B0F" stroke="#b46504" pointer-events="all"/>
  <text x="214.5" y="537" fill="#FFF" font-family="Tahoma" font-weight="bold" text-anchor="middle" font-size="17">Nginx</text>
  <path d="m220 1040 30 .04 19.9-.03" fill="none" stroke="#9287e8" stroke-width="3" stroke-miterlimit="10" stroke-dasharray="9 9" pointer-events="stroke"/>
  <path d="m276.65 1040-9 4.52 2.25-4.51-2.26-4.49Z" fill="#9287e8" stroke="#9287e8" stroke-width="3" stroke-miterlimit="10" pointer-events="all"/>
  <path d="m55 1080 .04 70.04.03 58.5" fill="none" stroke="#9287e8" stroke-width="3" stroke-miterlimit="10" pointer-events="stroke"/>
  <path d="m55.08 1215.29-4.51-9 4.5 2.25 4.5-2.26Z" fill="#9287e8" stroke="#9287e8" stroke-width="3" stroke-miterlimit="10" pointer-events="all"/>
  <rect y="1000" width="220" height="80" rx="12" ry="12" fill="#23445d" stroke="#b46504" pointer-events="all"/>
  <text x="109.5" y="1047" fill="#FFF" font-family="Tahoma" font-weight="bold" text-anchor="middle" font-size="17">Containers</text>
  <rect x="290" y="1010" width="130" height="60" rx="9" ry="9" fill="#018B0F" stroke="#b46504" pointer-events="all"/>
  <text x="354.5" y="1047" fill="#FFF" font-family="Tahoma" font-weight="bold" text-anchor="middle" font-size="17">Docker</text>
  <path d="M170 1260h194.9" fill="none" stroke="#9287e8" stroke-width="3" stroke-miterlimit="10" pointer-events="stroke"/>
  <path d="m371.65 1260-9 4.5 2.25-4.5-2.25-4.5Z" fill="#9287e8" stroke="#9287e8" stroke-width="3" stroke-miterlimit="10" pointer-events="all"/>
  <rect y="1220" width="170" height="80" rx="12" ry="12" fill="#23445d" stroke="#b46504" pointer-events="all"/>
  <text x="84.5" y="1267" fill="#FFF" font-family="Tahoma" font-weight="bold" text-anchor="middle" font-size="17">Cloud Providers</text>
  <rect y="1340" width="100" height="60" rx="9" ry="9" fill="#23445d" stroke="#b46504" pointer-events="all"/>
  <text x="49.5" y="1377" fill="#FFF" font-family="Tahoma" font-weight="bold" text-anchor="middle" font-size="17">AWS</text>
  <rect y="1410" width="100" height="60" rx="9" ry="9" fill="#018B0F" stroke="#b46504" pointer-events="all"/>
  <text x="49.5" y="1447" fill="#FFF" font-family="Tahoma" font-weight="bold" text-anchor="middle" font-size="17">Azure</text>
  <rect x="110" y="1340" width="130" height="60" rx="9" ry="9" fill="#23445d" stroke="#b46504" pointer-events="all"/>
  <text x="174.5" y="1377" fill="#FFF" font-family="Tahoma" font-weight="bold" text-anchor="middle" font-size="17">Google Cloud</text>
  <rect x="110" y="1410" width="130" height="60" rx="9" ry="9" fill="#23445d" stroke="#b46504" pointer-events="all"/>
  <text x="174.5" y="1447" fill="#FFF" font-family="Tahoma" font-weight="bold" text-anchor="middle" font-size="17">Alibaba</text>
  <path d="m485 1300 .04 20.04.04 9.86" fill="none" stroke="#9287e8" stroke-width="3" stroke-miterlimit="10" stroke-dasharray="9 9" pointer-events="stroke"/>
  <path d="m485.12 1336.65-4.55-8.98 4.51 2.23 4.49-2.27Z" fill="#9287e8" stroke="#9287e8" stroke-width="3" stroke-miterlimit="10" pointer-events="all"/>
  <path d="M595 1260h134.9" fill="none" stroke="#9287e8" stroke-width="3" stroke-miterlimit="10" pointer-events="stroke"/>
  <path d="m736.65 1260-9 4.5 2.25-4.5-2.25-4.5Z" fill="#9287e8" stroke="#9287e8" stroke-width="3" stroke-miterlimit="10" pointer-events="all"/>
  <rect x="375" y="1220" width="220" height="80" rx="12" ry="12" fill="#23445d" stroke="#b46504" pointer-events="all"/>
  <g fill="#FFF" font-family="Tahoma" font-weight="bold" text-anchor="middle" font-size="17">
    <text x="484.5" y="1257">Network, Security </text>
    <text x="484.5" y="1277">and Protocols</text>
  </g>
  <rect x="350" y="1340" width="130" height="60" rx="9" ry="9" fill="#018B0F" stroke="#b46504" pointer-events="all"/>
  <text x="414.5" y="1377" fill="#FFF" font-family="Tahoma" font-weight="bold" text-anchor="middle" font-size="17">FTP / SFTP</text>
  <rect x="350" y="1410" width="130" height="60" rx="9" ry="9" fill="#018B0F" stroke="#b46504" pointer-events="all"/>
  <text x="414.5" y="1447" fill="#FFF" font-family="Tahoma" font-weight="bold" text-anchor="middle" font-size="17">HTTP</text>
  <rect x="350" y="1480" width="130" height="60" rx="9" ry="9" fill="#018B0F" stroke="#b46504" pointer-events="all"/>
  <text x="414.5" y="1517" fill="#FFF" font-family="Tahoma" font-weight="bold" text-anchor="middle" font-size="17">SSL / TLS</text>
  <rect x="490" y="1340" width="130" height="60" rx="9" ry="9" fill="#018B0F" stroke="#b46504" pointer-events="all"/>
  <text x="554.5" y="1377" fill="#FFF" font-family="Tahoma" font-weight="bold" text-anchor="middle" font-size="17">DNS</text>
  <rect x="490" y="1410" width="130" height="60" rx="9" ry="9" fill="#018B0F" stroke="#b46504" pointer-events="all"/>
  <text x="554.5" y="1447" fill="#FFF" font-family="Tahoma" font-weight="bold" text-anchor="middle" font-size="17">HTTPS</text>
  <rect x="490" y="1480" width="130" height="60" rx="9" ry="9" fill="#018B0F" stroke="#b46504" pointer-events="all"/>
  <text x="554.5" y="1517" fill="#FFF" font-family="Tahoma" font-weight="bold" text-anchor="middle" font-size="17">SSH</text>
  <path d="m782.5 1300-.02 20.04-.06 9.86" fill="none" stroke="#9287e8" stroke-width="3" stroke-miterlimit="10" stroke-dasharray="9 9" pointer-events="stroke"/>
  <path d="m782.38 1336.65-4.44-9.03 4.48 2.28 4.52-2.23Z" fill="#9287e8" stroke="#9287e8" stroke-width="3" stroke-miterlimit="10" pointer-events="all"/>
  <path d="M867.5 1300v289.9" fill="none" stroke="#9287e8" stroke-width="3" stroke-miterlimit="10" pointer-events="stroke"/>
  <path d="m867.5 1596.65-4.5-9 4.5 2.25 4.5-2.25Z" fill="#9287e8" stroke="#9287e8" stroke-width="3" stroke-miterlimit="10" pointer-events="all"/>
  <rect x="740" y="1220" width="170" height="80" rx="12" ry="12" fill="#23445d" stroke="#b46504" pointer-events="all"/>
  <text x="824.5" y="1267" fill="#FFF" font-family="Tahoma" font-weight="bold" text-anchor="middle" font-size="17">Serverless</text>
  <rect x="710" y="1340" width="100" height="60" rx="9" ry="9" fill="#23445d" stroke="#b46504" pointer-events="all"/>
  <text x="759.5" y="1377" fill="#FFF" font-family="Tahoma" font-weight="bold" text-anchor="middle" font-size="17">Cloudflare</text>
  <rect x="710" y="1410" width="100" height="60" rx="9" ry="9" fill="#23445d" stroke="#b46504" pointer-events="all"/>
  <text x="759.5" y="1447" fill="#FFF" font-family="Tahoma" font-weight="bold" text-anchor="middle" font-size="17">Vercel</text>
  <path d="m825 1680 .04 20.04-.02 9.86" fill="none" stroke="#9287e8" stroke-width="3" stroke-miterlimit="10" stroke-dasharray="9 9" pointer-events="stroke"/>
  <path d="m825.01 1716.65-4.49-9.01 4.5 2.26 4.5-2.24Z" fill="#9287e8" stroke="#9287e8" stroke-width="3" stroke-miterlimit="10" pointer-events="all"/>
  <path d="M740 1640h-49.9" fill="none" stroke="#9287e8" stroke-width="3" stroke-miterlimit="10" pointer-events="stroke"/>
  <path d="m683.35 1640 9-4.5-2.25 4.5 2.25 4.5Z" fill="#9287e8" stroke="#9287e8" stroke-width="3" stroke-miterlimit="10" pointer-events="all"/>
  <rect x="740" y="1600" width="170" height="80" rx="12" ry="12" fill="#23445d" stroke="#b46504" pointer-events="all"/>
  <g fill="#FFF" font-family="Tahoma" font-weight="bold" text-anchor="middle" font-size="17">
    <text x="824.5" y="1637">Infrastructure</text>
    <text x="824.5" y="1657">Provisioning</text>
  </g>
  <rect x="750" y="1730" width="150" height="60" rx="9" ry="9" fill="#018B0F" stroke="#b46504" pointer-events="all"/>
  <text x="824.5" y="1767" fill="#FFF" font-family="Tahoma" font-weight="bold" text-anchor="middle" font-size="17">Terraform</text>
  <rect x="750" y="1800" width="150" height="60" rx="9" ry="9" fill="#1BA1E2" stroke="#b46504" pointer-events="all"/>
  <text x="824.5" y="1837" fill="#FFF" font-family="Tahoma" font-weight="bold" text-anchor="middle" font-size="17">Pulumi</text>
  <rect x="750" y="1870" width="150" height="60" rx="9" ry="9" fill="#23445d" stroke="#b46504" pointer-events="all"/>
  <text x="824.5" y="1907" fill="#FFF" font-family="Tahoma" font-weight="bold" text-anchor="middle" font-size="17">CloudFormation</text>
  <path d="m595 1680 .04 20.04-.02 9.86" fill="none" stroke="#9287e8" stroke-width="3" stroke-miterlimit="10" stroke-dasharray="9 9" pointer-events="stroke"/>
  <path d="m595.01 1716.65-4.49-9.01 4.5 2.26 4.5-2.24Z" fill="#9287e8" stroke="#9287e8" stroke-width="3" stroke-miterlimit="10" pointer-events="all"/>
  <path d="M510 1640H180.1" fill="none" stroke="#9287e8" stroke-width="3" stroke-miterlimit="10" pointer-events="stroke"/>
  <path d="m173.35 1640 9-4.5-2.25 4.5 2.25 4.5Z" fill="#9287e8" stroke="#9287e8" stroke-width="3" stroke-miterlimit="10" pointer-events="all"/>
  <rect x="510" y="1600" width="170" height="80" rx="12" ry="12" fill="#23445d" stroke="#b46504" pointer-events="all"/>
  <g fill="#FFF" font-family="Tahoma" font-weight="bold" text-anchor="middle" font-size="17">
    <text x="594.5" y="1637">Configuration</text>
    <text x="594.5" y="1657">Management</text>
  </g>
  <rect x="520" y="1730" width="150" height="60" rx="9" ry="9" fill="#1BA1E2" stroke="#b46504" pointer-events="all"/>
  <text x="594.5" y="1767" fill="#FFF" font-family="Tahoma" font-weight="bold" text-anchor="middle" font-size="17">Ansible</text>
  <rect x="520" y="1800" width="150" height="60" rx="9" ry="9" fill="#23445d" stroke="#b46504" pointer-events="all"/>
  <text x="594.5" y="1837" fill="#FFF" font-family="Tahoma" font-weight="bold" text-anchor="middle" font-size="17">Chef</text>
  <rect x="520" y="1870" width="150" height="60" rx="9" ry="9" fill="#23445d" stroke="#b46504" pointer-events="all"/>
  <text x="594.5" y="1907" fill="#FFF" font-family="Tahoma" font-weight="bold" text-anchor="middle" font-size="17">Puppet</text>
  <path d="m42.5 1680-.02 150.04.11 139.86" fill="none" stroke="#9287e8" stroke-width="3" stroke-miterlimit="10" pointer-events="stroke"/>
  <path d="m42.6 1976.65-4.51-9 4.5 2.25 4.5-2.26Z" fill="#9287e8" stroke="#9287e8" stroke-width="3" stroke-miterlimit="10" pointer-events="all"/>
  <path d="m127.5 1680 .02 20.04-.01 9.86" fill="none" stroke="#9287e8" stroke-width="3" stroke-miterlimit="10" stroke-dasharray="9 9" pointer-events="stroke"/>
  <path d="m127.5 1716.65-4.49-9.01 4.5 2.26 4.5-2.25Z" fill="#9287e8" stroke="#9287e8" stroke-width="3" stroke-miterlimit="10" pointer-events="all"/>
  <rect y="1600" width="170" height="80" rx="12" ry="12" fill="#23445d" stroke="#b46504" pointer-events="all"/>
  <text x="84.5" y="1647" fill="#FFF" font-family="Tahoma" font-weight="bold" text-anchor="middle" font-size="17">CI/CD Tools</text>
  <rect x="65" y="1730" width="150" height="60" rx="9" ry="9" fill="#018B0F" stroke="#b46504" pointer-events="all"/>
  <text x="139.5" y="1767" fill="#FFF" font-family="Tahoma" font-weight="bold" text-anchor="middle" font-size="17">Gitlab CI</text>
  <rect x="65" y="1800" width="150" height="60" rx="9" ry="9" fill="#1BA1E2" stroke="#b46504" pointer-events="all"/>
  <text x="139.5" y="1837" fill="#FFF" font-family="Tahoma" font-weight="bold" text-anchor="middle" font-size="17">GitHub Actions</text>
  <rect x="225" y="1800" width="150" height="60" rx="9" ry="9" fill="#23445d" stroke="#b46504" pointer-events="all"/>
  <text x="299.5" y="1837" fill="#FFF" font-family="Tahoma" font-weight="bold" text-anchor="middle" font-size="17">Jenkins</text>
  <rect x="225" y="1730" width="150" height="60" rx="9" ry="9" fill="#018B0F" stroke="#b46504" pointer-events="all"/>
  <g fill="#FFF" font-family="Tahoma" font-weight="bold" text-anchor="middle" font-size="17">
    <text x="299.5" y="1757">Azure DevOps </text>
    <text x="299.5" y="1777">Services</text>
  </g>
  <path d="M200 2020h119.9" fill="none" stroke="#9287e8" stroke-width="3" stroke-miterlimit="10" pointer-events="stroke"/>
  <path d="m326.65 2020-9 4.5 2.25-4.5-2.25-4.5Z" fill="#9287e8" stroke="#9287e8" stroke-width="3" stroke-miterlimit="10" pointer-events="all"/>
  <path d="M100 2060v29.9" fill="none" stroke="#9287e8" stroke-width="3" stroke-miterlimit="10" stroke-dasharray="9 9" pointer-events="stroke"/>
  <path d="m100 2096.65-4.5-9 4.5 2.25 4.5-2.25Z" fill="#9287e8" stroke="#9287e8" stroke-width="3" stroke-miterlimit="10" pointer-events="all"/>
  <rect y="1980" width="200" height="80" rx="12" ry="12" fill="#23445d" stroke="#b46504" pointer-events="all"/>
  <text x="99.5" y="2027" fill="#FFF" font-family="Tahoma" font-weight="bold" text-anchor="middle" font-size="17">Secret Management</text>
  <rect x="30" y="2180" width="150" height="60" rx="9" ry="9" fill="#23445d" stroke="#b46504" pointer-events="all"/>
  <text x="104.5" y="2217" fill="#FFF" font-family="Tahoma" font-weight="bold" text-anchor="middle" font-size="17">SOPS</text>
  <rect x="30" y="2110" width="150" height="60" rx="9" ry="9" fill="#23445d" stroke="#b46504" pointer-events="all"/>
  <text x="104.5" y="2147" fill="#FFF" font-family="Tahoma" font-weight="bold" text-anchor="middle" font-size="17">HashiCorp Vault</text>
  <rect x="30" y="2250" width="150" height="60" rx="9" ry="9" fill="#1BA1E2" stroke="#b46504" pointer-events="all"/>
  <g fill="#FFF" font-family="Tahoma" font-weight="bold" text-anchor="middle" font-size="17">
    <text x="104.5" y="2277">Cloud Specific </text>
    <text x="104.5" y="2297">Tools</text>
  </g>
  <path d="M430 2060v29.9" fill="none" stroke="#9287e8" stroke-width="3" stroke-miterlimit="10" stroke-dasharray="9 9" pointer-events="stroke"/>
  <path d="m430 2096.65-4.5-9 4.5 2.25 4.5-2.25Z" fill="#9287e8" stroke="#9287e8" stroke-width="3" stroke-miterlimit="10" pointer-events="all"/>
  <path d="M530 2020h169.9" fill="none" stroke="#9287e8" stroke-width="3" stroke-miterlimit="10" pointer-events="stroke"/>
  <path d="m706.65 2020-9 4.5 2.25-4.5-2.25-4.5Z" fill="#9287e8" stroke="#9287e8" stroke-width="3" stroke-miterlimit="10" pointer-events="all"/>
  <rect x="330" y="1980" width="200" height="80" rx="12" ry="12" fill="#23445d" stroke="#b46504" pointer-events="all"/>
  <text x="429.5" y="2027" fill="#FFF" font-family="Tahoma" font-weight="bold" text-anchor="middle" font-size="17">Monitoring</text>
  <rect width="160" height="80" rx="12" ry="12" fill="#23445d" stroke="#b46504" pointer-events="all"/>
  <text x="79.5" y="49" fill="#fff" font-family="Tahoma" font-weight="bold" text-anchor="middle" font-size="21">Topic</text>
  <rect y="170" width="160" height="70" rx="10.5" ry="10.5" fill="#018B0F" stroke="#2d7600" pointer-events="all"/>
  <text x="79.5" y="214" fill="#fff" font-family="Tahoma" font-weight="bold" text-anchor="middle" font-size="21">Confident</text>
  <rect y="90" width="160" height="70" rx="10.5" ry="10.5" fill="#1BA1E2" stroke="#006eaf" pointer-events="all"/>
  <g fill="#fff" font-family="Tahoma" font-weight="bold" text-anchor="middle" font-size="21">
    <text x="79.5" y="121.5">Learning / </text>
    <text x="79.5" y="146.5">Basics </text>
  </g>
  <path d="m220 340-34.48.04-25.42-.03" fill="none" stroke="#9287e8" stroke-width="3" stroke-miterlimit="10" stroke-dasharray="9 9" pointer-events="stroke"/>
  <path d="m153.35 340 9.01-4.49-2.26 4.5 2.25 4.5Z" fill="#9287e8" stroke="#9287e8" stroke-width="3" stroke-miterlimit="10" pointer-events="all"/>
  <rect x="220" y="300" width="200" height="80" rx="12" ry="12" fill="#23445d" stroke="#b46504" pointer-events="all"/>
  <text x="319.5" y="347" fill="#FFF" font-family="Tahoma" font-weight="bold" text-anchor="middle" font-size="17">Static Webpages</text>
  <rect y="280" width="130" height="60" rx="9" ry="9" fill="#018B0F" stroke="#b46504" pointer-events="all"/>
  <text x="64.5" y="317" fill="#FFF" font-family="Tahoma" font-weight="bold" text-anchor="middle" font-size="17">HTML</text>
  <rect y="350" width="130" height="60" rx="9" ry="9" fill="#018B0F" stroke="#b46504" pointer-events="all"/>
  <text x="64.5" y="387" fill="#FFF" font-family="Tahoma" font-weight="bold" text-anchor="middle" font-size="17">CSS</text>
  <rect x="430" y="2110" width="155" height="60" rx="9" ry="9" fill="#1BA1E2" stroke="#b46504" pointer-events="all"/>
  <text x="507" y="2147" fill="#FFF" font-family="Tahoma" font-weight="bold" text-anchor="middle" font-size="17">Prometheus</text>
  <rect x="330" y="2110" width="90" height="60" rx="9" ry="9" fill="#1BA1E2" stroke="#b46504" pointer-events="all"/>
  <text x="374.5" y="2147" fill="#FFF" font-family="Tahoma" font-weight="bold" text-anchor="middle" font-size="17">Grafana</text>
  <rect x="330" y="2250" width="90" height="60" rx="9" ry="9" fill="#1BA1E2" stroke="#b46504" pointer-events="all"/>
  <text x="374.5" y="2287" fill="#FFF" font-family="Tahoma" font-weight="bold" text-anchor="middle" font-size="17">Loki</text>
  <rect x="330" y="2180" width="90" height="60" rx="9" ry="9" fill="#23445d" stroke="#b46504" pointer-events="all"/>
  <text x="374.5" y="2217" fill="#FFF" font-family="Tahoma" font-weight="bold" text-anchor="middle" font-size="17">Nagios</text>
  <path d="M760 2060v29.9" fill="none" stroke="#9287e8" stroke-width="3" stroke-miterlimit="10" stroke-dasharray="9 9" pointer-events="stroke"/>
  <path d="m760 2096.65-4.5-9 4.5 2.25 4.5-2.25Z" fill="#9287e8" stroke="#9287e8" stroke-width="3" stroke-miterlimit="10" pointer-events="all"/>
  <rect x="710" y="1980" width="200" height="80" rx="12" ry="12" fill="#23445d" stroke="#b46504" pointer-events="all"/>
  <g fill="#FFF" font-family="Tahoma" font-weight="bold" text-anchor="middle" font-size="17">
    <text x="809.5" y="2017">Container </text>
    <text x="809.5" y="2037">Orchestration</text>
  </g>
  <rect x="430" y="2250" width="155" height="60" rx="9" ry="9" fill="#23445d" stroke="#b46504" pointer-events="all"/>
  <text x="507" y="2287" fill="#FFF" font-family="Tahoma" font-weight="bold" text-anchor="middle" font-size="17">Elastic Stack</text>
  <rect x="430" y="2180" width="155" height="60" rx="9" ry="9" fill="#1BA1E2" stroke="#b46504" pointer-events="all"/>
  <g fill="#FFF" font-family="Tahoma" font-weight="bold" text-anchor="middle" font-size="17">
    <text x="507" y="2207">Blackbox</text>
    <text x="507" y="2227">Exporter</text>
  </g>
  <path d="M810 2440v29.9" fill="none" stroke="#9287e8" stroke-width="3" stroke-miterlimit="10" stroke-dasharray="9 9" pointer-events="stroke"/>
  <path d="m810 2476.65-4.5-9 4.5 2.25 4.5-2.25Z" fill="#9287e8" stroke="#9287e8" stroke-width="3" stroke-miterlimit="10" pointer-events="all"/>
  <path d="M710 2400H580.1" fill="none" stroke="#9287e8" stroke-width="3" stroke-miterlimit="10" pointer-events="stroke"/>
  <path d="m573.35 2400 9-4.5-2.25 4.5 2.25 4.5Z" fill="#9287e8" stroke="#9287e8" stroke-width="3" stroke-miterlimit="10" pointer-events="all"/>
  <rect x="710" y="2360" width="200" height="80" rx="12" ry="12" fill="#23445d" stroke="#b46504" pointer-events="all"/>
  <text x="809.5" y="2407" fill="#FFF" font-family="Tahoma" font-weight="bold" text-anchor="middle" font-size="17">GitOps</text>
  <rect x="682.5" y="2110" width="155" height="60" rx="9" ry="9" fill="#018B0F" stroke="#b46504" pointer-events="all"/>
  <text x="759.5" y="2147" fill="#FFF" font-family="Tahoma" font-weight="bold" text-anchor="middle" font-size="17">Kubernetes</text>
  <rect x="682.5" y="2180" width="155" height="60" rx="9" ry="9" fill="#018B0F" stroke="#b46504" pointer-events="all"/>
  <text x="759.5" y="2217" fill="#FFF" font-family="Tahoma" font-weight="bold" text-anchor="middle" font-size="17">Rancher</text>
  <rect x="682.5" y="2250" width="155" height="60" rx="9" ry="9" fill="#1BA1E2" stroke="#b46504" pointer-events="all"/>
  <text x="759.5" y="2287" fill="#FFF" font-family="Tahoma" font-weight="bold" text-anchor="middle" font-size="17">Azure AKS</text>
  <path d="m879.99 2349.9-.19-289.98" fill="none" stroke="#9287e8" stroke-width="3" stroke-miterlimit="10" pointer-events="stroke"/>
  <path d="m880 2356.65-4.51-9 4.5 2.25 4.5-2.26Z" fill="#9287e8" stroke="#9287e8" stroke-width="3" stroke-miterlimit="10" pointer-events="all"/>
  <rect x="745" y="2490" width="155" height="60" rx="9" ry="9" fill="#23445d" stroke="#b46504" pointer-events="all"/>
  <text x="822" y="2527" fill="#FFF" font-family="Tahoma" font-weight="bold" text-anchor="middle" font-size="17">ArgoCD</text>
  <path d="M470 2440v29.9" fill="none" stroke="#9287e8" stroke-width="3" stroke-miterlimit="10" stroke-dasharray="9 9" pointer-events="stroke"/>
  <path d="m470 2476.65-4.5-9 4.5 2.25 4.5-2.25Z" fill="#9287e8" stroke="#9287e8" stroke-width="3" stroke-miterlimit="10" pointer-events="all"/>
  <path d="M370 2400H210.1" fill="none" stroke="#9287e8" stroke-width="3" stroke-miterlimit="10" pointer-events="stroke"/>
  <path d="m203.35 2400 9-4.5-2.25 4.5 2.25 4.5Z" fill="#9287e8" stroke="#9287e8" stroke-width="3" stroke-miterlimit="10" pointer-events="all"/>
  <rect x="370" y="2360" width="200" height="80" rx="12" ry="12" fill="#23445d" stroke="#b46504" pointer-events="all"/>
  <text x="469.5" y="2407" fill="#FFF" font-family="Tahoma" font-weight="bold" text-anchor="middle" font-size="17">Service Mesh</text>
  <path d="M150 2440v29.9" fill="none" stroke="#9287e8" stroke-width="3" stroke-miterlimit="10" stroke-dasharray="9 9" pointer-events="stroke"/>
  <path d="m150 2476.65-4.5-9 4.5 2.25 4.5-2.25Z" fill="#9287e8" stroke="#9287e8" stroke-width="3" stroke-miterlimit="10" pointer-events="all"/>
  <rect x="370" y="2490" width="90" height="60" rx="9" ry="9" fill="#23445d" stroke="#b46504" pointer-events="all"/>
  <text x="414.5" y="2527" fill="#FFF" font-family="Tahoma" font-weight="bold" text-anchor="middle" font-size="17">Consul</text>
  <rect x="480" y="2490" width="90" height="60" rx="9" ry="9" fill="#23445d" stroke="#b46504" pointer-events="all"/>
  <text x="524.5" y="2527" fill="#FFF" font-family="Tahoma" font-weight="bold" text-anchor="middle" font-size="17">Istio</text>
  <rect x="80" y="2490" width="160" height="60" rx="9" ry="9" fill="#1BA1E2" stroke="#b46504" pointer-events="all"/>
  <text x="159.5" y="2527" fill="#FFF" font-family="Tahoma" font-weight="bold" text-anchor="middle" font-size="17">Availability</text>
  <rect x="80" y="2560" width="160" height="60" rx="9" ry="9" fill="#1BA1E2" stroke="#b46504" pointer-events="all"/>
  <g fill="#FFF" font-family="Tahoma" font-weight="bold" text-anchor="middle" font-size="17">
    <text x="159.5" y="2587">Data </text>
    <text x="159.5" y="2607">Management</text>
  </g>
  <rect x="80" y="2630" width="160" height="60" rx="9" ry="9" fill="#1BA1E2" stroke="#b46504" pointer-events="all"/>
  <g fill="#FFF" font-family="Tahoma" font-weight="bold" text-anchor="middle" font-size="17">
    <text x="159.5" y="2657">Design and </text>
    <text x="159.5" y="2677">Implementation</text>
  </g>
  <rect x="80" y="2700" width="160" height="60" rx="9" ry="9" fill="#1BA1E2" stroke="#b46504" pointer-events="all"/>
  <g fill="#FFF" font-family="Tahoma" font-weight="bold" text-anchor="middle" font-size="17">
    <text x="159.5" y="2727">Management and</text>
    <text x="159.5" y="2747">Monitoring</text>
  </g>
  <path d="m445 2790 .04-19.96-.13-9.94" fill="none" stroke="#9287e8" stroke-width="3" stroke-miterlimit="10" stroke-dasharray="9 9" pointer-events="stroke"/>
  <path d="m444.82 2753.35 4.62 8.94-4.53-2.19-4.47 2.31Z" fill="#9287e8" stroke="#9287e8" stroke-width="3" stroke-miterlimit="10" pointer-events="all"/>
  <path d="m445 2870-.15 19.9" fill="none" stroke="#9287e8" stroke-width="3" stroke-miterlimit="10" stroke-dasharray="9 9" pointer-events="stroke"/>
  <path d="m444.8 2896.65-4.43-9.04 4.48 2.29 4.52-2.22Z" fill="#9287e8" stroke="#9287e8" stroke-width="3" stroke-miterlimit="10" pointer-events="all"/>
  <path d="M565 2830h84.9" fill="none" stroke="#9287e8" stroke-width="3" stroke-miterlimit="10" pointer-events="stroke"/>
  <path d="m656.65 2830-9 4.5 2.25-4.5-2.25-4.5Z" fill="#9287e8" stroke="#9287e8" stroke-width="3" stroke-miterlimit="10" pointer-events="all"/>
  <rect x="325" y="2790" width="240" height="80" rx="12" ry="12" fill="#23445d" stroke="#b46504" pointer-events="all"/>
  <text x="444.5" y="2839" fill="#FFF" font-family="Tahoma" font-weight="bold" text-anchor="middle" font-size="21">Databases</text>
  <path d="M50 2440v390.04l264.9-.04" fill="none" stroke="#9287e8" stroke-width="3" stroke-miterlimit="10" pointer-events="stroke"/>
  <path d="m321.65 2830-9 4.5 2.25-4.5-2.25-4.5Z" fill="#9287e8" stroke="#9287e8" stroke-width="3" stroke-miterlimit="10" pointer-events="all"/>
  <rect y="2360" width="200" height="80" rx="12" ry="12" fill="#23445d" stroke="#b46504" pointer-events="all"/>
  <text x="99.5" y="2407" fill="#FFF" font-family="Tahoma" font-weight="bold" text-anchor="middle" font-size="17">Cloud Design Patterns</text>
  <rect x="450" y="2900" width="110" height="60" rx="9" ry="9" fill="#018B0F" stroke="#b46504" pointer-events="all"/>
  <text x="504.5" y="2937" fill="#FFF" font-family="Tahoma" font-weight="bold" text-anchor="middle" font-size="17">PostgreSQL</text>
  <rect x="450" y="2690" width="110" height="60" rx="9" ry="9" fill="#1BA1E2" stroke="#b46504" pointer-events="all"/>
  <text x="504.5" y="2727" fill="#FFF" font-family="Tahoma" font-weight="bold" text-anchor="middle" font-size="17">MongoDB</text>
  <rect x="325" y="2900" width="110" height="60" rx="9" ry="9" fill="#23445d" stroke="#b46504" pointer-events="all"/>
  <text x="379.5" y="2937" fill="#FFF" font-family="Tahoma" font-weight="bold" text-anchor="middle" font-size="17">MySQL</text>
  <rect x="325" y="2690" width="110" height="60" rx="9" ry="9" fill="#1BA1E2" stroke="#b46504" pointer-events="all"/>
  <text x="379.5" y="2727" fill="#FFF" font-family="Tahoma" font-weight="bold" text-anchor="middle" font-size="17">Neo4J</text>
  <rect x="450" y="2620" width="110" height="60" rx="9" ry="9" fill="#23445d" stroke="#b46504" pointer-events="all"/>
  <text x="504.5" y="2657" fill="#FFF" font-family="Tahoma" font-weight="bold" text-anchor="middle" font-size="17">CouchDB</text>
  <rect x="325" y="2620" width="110" height="60" rx="9" ry="9" fill="#23445d" stroke="#b46504" pointer-events="all"/>
  <text x="379.5" y="2657" fill="#FFF" font-family="Tahoma" font-weight="bold" text-anchor="middle" font-size="17">MariaDB</text>
  <rect x="325" y="2970" width="110" height="60" rx="9" ry="9" fill="#23445d" stroke="#b46504" pointer-events="all"/>
  <text x="379.5" y="3007" fill="#FFF" font-family="Tahoma" font-weight="bold" text-anchor="middle" font-size="17">Oracle</text>
  <rect x="660" y="2790" width="240" height="80" rx="12" ry="12" fill="#23445d" stroke="#b46504" pointer-events="all"/>
  <text x="779.5" y="2839" fill="#FFF" font-family="Tahoma" font-weight="bold" text-anchor="middle" font-size="21">Keep Learning</text>
  <path d="M595 920v39.9" fill="none" stroke="#9287e8" stroke-width="3" stroke-miterlimit="10" stroke-dasharray="9 9" pointer-events="stroke"/>
  <path d="m595 966.65-4.5-9 4.5 2.25 4.5-2.25Z" fill="#9287e8" stroke="#9287e8" stroke-width="3" stroke-miterlimit="10" pointer-events="all"/>
  <path d="m80 1300 .48 21-.16 8.9" fill="none" stroke="#9287e8" stroke-width="3" stroke-miterlimit="10" stroke-dasharray="9 9" pointer-events="stroke"/>
  <path d="m80.19 1336.65-4.33-9.08 4.46 2.33 4.54-2.17Z" fill="#9287e8" stroke="#9287e8" stroke-width="3" stroke-miterlimit="10" pointer-events="all"/>
</svg>
